<mxfile host="app.diagrams.net" modified="2023-09-10T21:28:04.031Z" agent="Mozilla/5.0 (Windows NT 10.0; Win64; x64) AppleWebKit/537.36 (KHTML, like Gecko) Chrome/116.0.0.0 Safari/537.36" version="21.7.2" etag="d2OQRYxL3XKKUV4tf4Y2" type="github">
  <diagram name="Page-1" id="ZJZ87vrSUxxcuNjcAp2-">
    <mxGraphModel>
      <root>
        <mxCell id="0" />
        <mxCell id="1" parent="0" />
      </root>
    </mxGraphModel>
  </diagram>
</mxfile>
